<svg width="123" height="121" viewBox="0 0 123 121" fill="none" xmlns="http://www.w3.org/2000/svg">
<g clip-path="url(#clip0)">
<path d="M108.645 0H13.7105C10.0493 0.0329722 6.55403 1.16369 3.98768 3.14532C1.42132 5.12696 -0.0076694 7.79853 0.0126693 10.5768V19.9325H6.22168V10.6057C6.22144 9.09047 7.00677 7.63601 8.40803 6.55654C9.80925 5.47707 11.7139 4.85921 13.7105 4.83648H108.645C110.643 4.85671 112.551 5.47347 113.955 6.55321C115.359 7.63294 116.146 9.08884 116.146 10.6057V89.9703H6.20899V74.8071H0V94.7782H122.33V10.6153C122.364 7.83199 120.942 5.15199 118.377 3.16231C115.812 1.17263 112.312 0.0355011 108.645 0Z" fill="#AAAAAA"/>
<path d="M6.22163 27.7119H0.0126038V67.0673H6.22163V27.7119Z" fill="#AAAAAA"/>
<path d="M25.8367 116.193H21.3257V98.3467H15.1167V121.001H30.145L41.0805 98.3467L34.4533 98.366L25.8367 116.193Z" fill="#AAAAAA"/>
<path d="M101.016 116.193H96.5053L87.8889 98.3467H81.2617L92.1974 121.001H107.226V98.3467H101.029L101.016 116.193Z" fill="#AAAAAA"/>
<path d="M42.9942 47.3939C43.069 50.11 44.1988 52.749 46.2417 54.9795C48.2847 57.2105 51.1498 58.9339 54.4787 59.9341C57.807 60.9346 61.4503 61.1668 64.9524 60.6022C68.4544 60.0377 71.6583 58.7014 74.1636 56.7609C76.6689 54.8199 78.3633 52.3614 79.0344 49.6929C79.706 47.0249 79.3242 44.2653 77.9377 41.761C76.5508 39.2563 74.2207 37.1182 71.2391 35.6145C68.2576 34.1107 64.7575 33.3082 61.1777 33.3076C56.3079 33.3533 51.66 34.8612 48.2522 37.5013C44.8442 40.1415 42.9536 43.6985 42.9942 47.3939ZM59.315 36.2884V45.4708H63.0405V36.2884C66.6827 36.6474 70.0086 38.0448 72.3422 40.1971C74.6758 42.3494 75.8428 45.0949 75.6056 47.8761C75.3685 50.6575 73.7454 53.2662 71.0655 55.1724C68.386 57.0785 64.8505 58.1391 61.1777 58.1391C57.5045 58.1391 53.9694 57.0785 51.2895 55.1724C48.61 53.2662 46.9868 50.6575 46.7497 47.8761C46.5126 45.0949 47.6794 42.3494 50.0133 40.1971C52.3468 38.0448 55.6727 36.6474 59.315 36.2884Z" fill="#AAAAAA"/>
<path d="M63.0405 23.7017H59.315V29.2016H63.0405V23.7017Z" fill="#AAAAAA"/>
<path d="M52.4723 24.6357L48.9748 25.6165L51.3948 30.7895L54.8924 29.7992L52.4723 24.6357Z" fill="#AAAAAA"/>
<path d="M40.0921 30.164L44.6665 34.3852L47.5176 32.5294L42.9558 28.3179L40.0921 30.164Z" fill="#AAAAAA"/>
<path d="M33.7692 36.7892L39.9148 39.5393L41.7775 37.0488L35.6318 34.2988L33.7692 36.7892Z" fill="#AAAAAA"/>
<path d="M30.741 44.6927L37.7356 45.6542L38.3819 42.8081L31.3872 41.856L30.741 44.6927Z" fill="#AAAAAA"/>
<path d="M30.741 50.0866L31.3872 52.9229L38.3819 51.9711L37.7356 49.125L30.741 50.0866Z" fill="#AAAAAA"/>
<path d="M41.7775 57.7311L39.9148 55.2407L33.7692 57.9908L35.6192 60.4812L41.7775 57.7311Z" fill="#AAAAAA"/>
<path d="M47.5049 62.2498L44.6538 60.4038L40.0921 64.6154L42.9432 66.4712L47.5049 62.2498Z" fill="#AAAAAA"/>
<path d="M52.4723 70.1447L54.8925 64.9814L51.3953 63.9907L48.9622 69.1639L52.4723 70.1447Z" fill="#AAAAAA"/>
<path d="M63.0405 65.5864H59.315V71.0863H63.0405V65.5864Z" fill="#AAAAAA"/>
<path d="M69.8827 70.1447L73.3803 69.1639L70.9597 63.9907L67.4626 64.9814L69.8827 70.1447Z" fill="#AAAAAA"/>
<path d="M74.8371 62.2596L79.4117 66.4712L82.2629 64.6154L77.6883 60.4038L74.8371 62.2596Z" fill="#AAAAAA"/>
<path d="M88.5861 57.9908L82.4405 55.2407L80.5778 57.7409L86.7234 60.4906L88.5861 57.9908Z" fill="#AAAAAA"/>
<path d="M91.6143 50.087L84.6196 49.1353L83.9731 51.9716L90.9679 52.9237L91.6143 50.087Z" fill="#AAAAAA"/>
<path d="M90.9679 41.856L83.9731 42.8175L84.6196 45.6542L91.6143 44.7021L90.9679 41.856Z" fill="#AAAAAA"/>
<path d="M80.5778 37.0488L82.4405 39.5487L88.5989 36.7988L86.7361 34.2988L80.5778 37.0488Z" fill="#AAAAAA"/>
<path d="M74.8499 32.5294L77.7011 34.3852L82.2624 30.1736L79.4117 28.3179L74.8499 32.5294Z" fill="#AAAAAA"/>
<path d="M69.8955 24.6357L67.4626 29.8088L70.9597 30.7895L73.3926 25.6261L69.8955 24.6357Z" fill="#AAAAAA"/>
</g>
<defs>
<clipPath id="clip0">
<rect width="123" height="121" fill="white"/>
</clipPath>
</defs>
</svg>
