<svg width="152" height="121" viewBox="0 0 152 121" fill="none" xmlns="http://www.w3.org/2000/svg">
<g clip-path="url(#clip0)">
<path d="M151.998 40.8595L152 20.8947L122.398 20.7932L122.382 25.1746L140.186 25.2359L108.466 41.0241L108.468 19.0191C108.468 19.0172 108.468 19.0172 108.468 19.0153C108.466 18.2413 108.034 17.5248 107.328 17.132L77.0879 0.303422C76.3572 -0.102733 75.452 -0.100816 74.7251 0.307255L44.6762 17.1339C43.9721 17.5286 43.5396 18.2432 43.5396 19.0172L43.5377 41.0241L12.488 25.2264L29.6266 25.1708L29.6104 20.7893L3.93194 20.8736L3.43055 20.6188L3.28237 20.8775L0.00811828 20.889L0.0060895 40.8558H4.6485L4.65052 26.2188L43.5355 45.9998L43.5336 73.3443L41.4975 74.3578L43.5336 77.9977V77.9995L41.4975 74.3578L4.64242 92.7018L4.64444 78.4593H0.0020288L0 98.4262L29.6022 98.5277L29.6185 94.1461L11.8161 94.0848L43.5317 78.2984L43.5294 100.302C43.5294 101.078 43.9637 101.794 44.6724 102.189L74.9121 119.017C75.2753 119.221 75.6835 119.322 76.0912 119.322C76.5012 119.322 76.9116 119.219 77.2749 119.016L107.321 102.191C108.026 101.796 108.458 101.082 108.458 100.308L108.46 79.0379L140.352 95.2651L122.371 95.3245L122.388 99.7058L151.99 99.6083L151.992 79.6415H147.35L147.347 93.8472L110.513 75.1069L108.458 74.0608L108.46 45.9804L147.353 26.6211L147.351 40.8632H151.998V40.8595ZM75.9107 4.73473L101.587 19.0249L76.0954 33.2977L50.4169 19.0095L75.9107 4.73473ZM48.176 75.9862L61.4091 69.3994L56.5676 66.8573L48.1779 71.0336L48.1821 22.8488L73.7812 37.0931L73.7751 113.295L48.176 99.0488V75.9862ZM103.822 76.6718L103.82 99.0565L78.4134 113.284L78.4195 37.0909L103.826 22.8661L103.822 71.6965L94.1534 66.7766L89.6656 69.4705L103.822 76.6718Z" fill="#AAAAAA"/>
</g>
<defs>
<clipPath id="clip0">
<rect width="152" height="121" fill="white"/>
</clipPath>
</defs>
</svg>
