<svg width="128" height="121" viewBox="0 0 128 121" fill="none" xmlns="http://www.w3.org/2000/svg">
<g clip-path="url(#clip0)">
<path d="M105.237 25.6543L114.831 15.5904L110.498 12.5072L100.87 22.5712C90.7895 15.9762 78.5483 12.1738 65.8176 11.6831V4.84775H76.4434V0H49.6212V4.84775H60.247V11.6831C26.765 12.9726 1.32638e-05 36.8623 1.32638e-05 66.0845C-0.0072644 75.7551 2.98045 85.2589 8.66569 93.6491L13.5029 91.1958C8.32552 83.552 5.60649 74.8941 5.61664 66.0845C5.61664 38.7238 31.3958 16.4727 63.0669 16.4727C94.7377 16.4727 120.517 38.7722 120.517 66.0944C120.517 93.4162 94.7147 115.745 63.044 115.745C51.2159 115.73 39.6892 112.588 30.0776 106.757H42.2394V101.91H20.2428V121H25.8594V110.063C36.5912 116.867 49.6322 120.56 63.044 120.593C97.8097 120.593 126.088 96.1602 126.088 66.1329C126.118 58.5322 124.28 51.0091 120.691 44.0406C117.101 37.0724 111.839 30.8112 105.237 25.6543Z" fill="#AAAAAA"/>
<path d="M65.8176 66.0851H65.852V25.9165H60.2355V63.6613H24.8049V68.5089H65.8176V66.0851Z" fill="#AAAAAA"/>
</g>
<defs>
<clipPath id="clip0">
<rect width="128" height="121" fill="white"/>
</clipPath>
</defs>
</svg>
